<svg xmlns="http://www.w3.org/2000/svg" width="650" height="505" viewBox="0 0 1300 1010">
<rect width="1300" height="1010" fill="#fff"/>
<rect x="150.0" y="200.0" width="1000.0" height="750.0" fill="none" stroke="#ddd" stroke-dasharray="8 8"/>
<path d="M 627.47,802.25 L 625.56,806.66 L 624.39,811.36 L 623.99,816.20 L 624.39,821.04 L 625.56,825.74 L 627.47,830.15 L 630.08,834.13 L 633.28,837.57 L 637.00,840.36 L 641.10,842.42 L 645.48,843.68 L 650.00,844.10 L 654.52,843.68 L 658.90,842.42 L 663.00,840.36 L 666.72,837.57 L 669.92,834.13 L 672.53,830.15 L 674.44,825.74 L 675.61,821.04 L 676.01,816.20 L 675.61,811.36 L 674.44,806.66 L 672.53,802.25 L 678.31,796.40 L 674.48,767.60 L 656.12,788.30 L 643.88,788.30 L 625.52,767.60 L 621.70,796.40 L 627.47,802.25" fill="none" stroke="#111" stroke-width="2.5" stroke-linecap="round" stroke-linejoin="round"/>
<path d="M 668.36,791.00 L 670.65,777.50" fill="none" stroke="#111" stroke-width="2.5" stroke-linecap="round" stroke-linejoin="round"/>
<path d="M 631.64,791.00 L 629.35,777.50" fill="none" stroke="#111" stroke-width="2.5" stroke-linecap="round" stroke-linejoin="round"/>
<path d="M 644.30,809.18 L 643.52,808.14 L 642.50,807.34 L 641.32,806.83 L 640.05,806.66 L 638.79,806.83 L 637.61,807.34 L 636.59,808.14 L 635.81,809.18" fill="none" stroke="#111" stroke-width="2.5" stroke-linecap="round" stroke-linejoin="round"/>
<path d="M 664.19,809.18 L 663.41,808.14 L 662.39,807.34 L 661.21,806.83 L 659.94,806.66 L 658.68,806.83 L 657.50,807.34 L 656.48,808.14 L 655.70,809.18" fill="none" stroke="#111" stroke-width="2.5" stroke-linecap="round" stroke-linejoin="round"/>
<path d="M 650.00,820.70 L 650.00,825.74 L 650.00,825.74 L 649.78,827.19 L 649.12,828.49 L 648.11,829.53 L 646.83,830.19 L 645.41,830.42 L 643.99,830.19 L 642.71,829.53 L 641.70,828.49 L 641.04,827.19 L 640.82,825.74" fill="none" stroke="#111" stroke-width="2.5" stroke-linecap="round" stroke-linejoin="round"/>
<path d="M 650.00,825.74 L 650.22,827.19 L 650.88,828.49 L 651.89,829.53 L 653.17,830.19 L 654.59,830.42 L 656.01,830.19 L 657.29,829.53 L 658.30,828.49 L 658.96,827.19 L 659.18,825.74" fill="none" stroke="#111" stroke-width="2.5" stroke-linecap="round" stroke-linejoin="round"/>
<path d="M 619.40,815.30 L 599.51,808.46" fill="none" stroke="#111" stroke-width="2.5" stroke-linecap="round" stroke-linejoin="round"/>
<path d="M 619.40,821.60 L 599.51,819.80" fill="none" stroke="#111" stroke-width="2.5" stroke-linecap="round" stroke-linejoin="round"/>
<path d="M 619.40,827.90 L 599.51,831.14" fill="none" stroke="#111" stroke-width="2.5" stroke-linecap="round" stroke-linejoin="round"/>
<path d="M 680.60,815.30 L 700.49,808.46" fill="none" stroke="#111" stroke-width="2.5" stroke-linecap="round" stroke-linejoin="round"/>
<path d="M 680.60,821.60 L 700.49,819.80" fill="none" stroke="#111" stroke-width="2.5" stroke-linecap="round" stroke-linejoin="round"/>
<path d="M 680.60,827.90 L 700.49,831.14" fill="none" stroke="#111" stroke-width="2.5" stroke-linecap="round" stroke-linejoin="round"/>
<path d="M 632.10,846.25 L 628.78,850.85 L 625.97,856.18 L 623.73,862.10 L 622.13,868.47 L 621.19,875.15 L 620.94,881.96 L 621.38,888.75 L 622.51,895.36 L 624.30,901.62 L 626.71,907.39 L 629.67,912.52 L 633.12,916.90 L 636.97,920.42 L 641.14,923.00 L 645.52,924.57 L 650.00,925.10 L 654.48,924.57 L 658.86,923.00 L 663.03,920.42 L 666.88,916.90 L 670.33,912.52 L 673.29,907.39 L 675.70,901.62 L 677.49,895.36 L 678.62,888.75 L 679.06,881.96 L 678.81,875.15 L 677.87,868.47 L 676.27,862.10 L 674.03,856.18 L 671.22,850.85 L 667.90,846.25" fill="none" stroke="#111" stroke-width="2.5" stroke-linecap="round" stroke-linejoin="round"/>
<path d="M 640.82,881.00 L 640.82,918.80" fill="none" stroke="#111" stroke-width="2.5" stroke-linecap="round" stroke-linejoin="round"/>
<path d="M 659.18,881.00 L 659.18,918.80" fill="none" stroke="#111" stroke-width="2.5" stroke-linecap="round" stroke-linejoin="round"/>
<path d="M 695.90,926.90 L 699.11,926.55 L 702.21,925.53 L 705.09,923.85 L 707.67,921.58 L 709.86,918.80 L 711.58,915.60 L 712.77,912.08 L 713.40,908.36 L 713.44,904.58 L 712.90,900.84 L 711.78,897.29 L 710.13,894.03 L 708.01,891.18 L 705.48,888.84 L 702.63,887.08 L 699.56,885.95 L 696.36,885.51 L 693.15,885.75 L 690.03,886.69 L 687.10,888.27 L 689.78,886.09 L 691.36,884.66 L 692.58,882.80 L 693.34,880.63 L 693.61,878.30 L 693.34,875.97 L 692.58,873.80 L 691.36,871.94 L 689.78,870.51 L 687.93,869.61 L 685.96,869.30 L 683.98,869.61 L 682.13,870.51" fill="none" stroke="#111" stroke-width="2.5" stroke-linecap="round" stroke-linejoin="round"/>
</svg>